<svg xmlns="http://www.w3.org/2000/svg" width="1196.848" height="1286.215" viewBox="0 0 1196.848 1286.215">
  <g id="Group_847" data-name="Group 847" transform="translate(14333.967 20110.543)">
    <g id="Group_845" data-name="Group 845" transform="translate(-14333.967 -20110.543)">
      <path id="Path_831" data-name="Path 831" d="M1196.848,855.812V430.328c0-77.709-42.468-149.561-111.153-188.453L709.462,29.169a226.075,226.075,0,0,0-222.152,0l-376.157,212.7C42.315,280.766,0,352.619,0,430.328V855.812c0,77.784,42.315,149.637,111.153,188.454l376.157,212.78a226.075,226.075,0,0,0,222.152,0l376.233-212.78c68.685-38.817,111.153-110.67,111.153-188.454" transform="translate(0 -0.001)" fill="#007bff"/>
    </g>
    <g id="Group_846" data-name="Group 846" transform="translate(-14230.363 -19693.973)">
      <path id="Path_832" data-name="Path 832" d="M81.525,26.725,186.819,130.164,81.692,233.12h99.077L286.055,130,180.6,26.725Z" transform="translate(703.449 90.768)" fill="#fff"/>
      <path id="Path_833" data-name="Path 833" d="M40.337,315.991l88.351-.109L434.312,16.535l-88.23.109-.056-.055-.056.055H345.9l-.074-.146Z" transform="translate(361.834 58.271)" fill="#fff"/>
      <path id="Path_834" data-name="Path 834" d="M184.64,87.991a187.544,187.544,0,0,1,68.508,12.863C292.277,40.254,361.287,0,439.917,0c83.509,0,156.19,45.406,193.721,112.387a218.769,218.769,0,0,0-151.989-60.8c-76.353,0-143.485,38.606-182.2,96.967a228.091,228.091,0,0,0-20.578,41.028A125.014,125.014,0,0,0,184.64,147.17c-68.6,0-124.218,54.473-124.218,121.663S116.039,390.488,184.64,390.488a125.309,125.309,0,0,0,79.234-27.965,36.343,36.343,0,0,1,34.733-24.933c20.113,0,36.415,15.967,36.415,35.666,0,18.734-14.741,34.082-33.487,35.548A186.237,186.237,0,0,1,184.64,449.677C82.663,449.677,0,368.714,0,268.834S82.663,87.991,184.64,87.991" transform="translate(0 0)" fill="#fff"/>
    </g>
  </g>
</svg>
